<?xml version="1.0" standalone="no"?>
<!DOCTYPE svg PUBLIC "-//W3C//DTD SVG 20010904//EN"
 "http://www.w3.org/TR/2001/REC-SVG-20010904/DTD/svg10.dtd">
<svg version="1.0" xmlns="http://www.w3.org/2000/svg"
 width="200.000000pt" height="125.000000pt" viewBox="0 0 236.000000 145.000000"
 preserveAspectRatio="xMidYMid meet">

<g transform="translate(0.000000,145.000000) scale(0.100000,-0.100000)"
fill="#000000" stroke="none">
<path d="M1270 960 c0 -5 7 -10 15 -10 8 0 15 5 15 10 0 6 -7 10 -15 10 -8 0
-15 -4 -15 -10z"/>
<path d="M807 935 c-32 -33 -44 -92 -23 -114 15 -14 16 -11 16 31 0 38 5 50
26 67 27 21 104 30 104 12 0 -22 -44 -61 -75 -67 -41 -7 -47 -24 -9 -24 53 0
103 45 104 93 0 26 -1 27 -59 27 -49 0 -62 -4 -84 -25z"/>
<path d="M1040 848 c0 -39 4 -68 10 -68 6 0 10 22 10 49 0 56 19 82 45 61 10
-8 15 -30 15 -61 0 -37 4 -49 15 -49 11 0 15 13 15 54 0 53 10 68 38 59 7 -3
12 -24 12 -59 0 -41 4 -54 15 -54 11 0 15 12 15 51 0 28 -5 59 -10 70 -11 20
-54 26 -65 9 -4 -6 -13 -7 -23 -1 -10 5 -34 9 -55 8 l-37 -1 0 -68z"/>
<path d="M1270 850 c0 -56 3 -70 15 -70 12 0 15 14 15 70 0 56 -3 70 -15 70
-12 0 -15 -14 -15 -70z"/>
<path d="M1346 898 c-46 -65 19 -149 83 -109 22 14 4 33 -20 20 -27 -14 -49 4
-49 41 0 37 22 55 49 41 24 -13 42 6 20 20 -26 16 -67 10 -83 -13z"/>
<path d="M1480 848 c0 -39 4 -68 10 -68 6 0 10 22 10 49 0 51 10 66 42 66 37
0 16 20 -22 21 l-40 1 0 -69z"/>
<path d="M620 820 c0 -33 26 -75 55 -88 32 -15 75 -16 75 -2 0 6 -12 10 -26
10 -26 0 -84 48 -84 69 0 19 76 12 103 -9 23 -18 26 -29 29 -92 2 -46 7 -73
16 -76 16 -5 17 117 0 153 -16 36 -57 55 -118 55 -44 0 -50 -3 -50 -20z"/>
<path d="M664 676 c-11 -30 25 -88 69 -109 53 -26 52 -57 -3 -57 -29 0 -40 -4
-40 -15 0 -13 14 -15 85 -13 86 3 121 20 53 26 -32 3 -38 7 -38 25 0 16 11 26
38 38 41 17 79 77 68 105 -8 20 -26 8 -26 -17 0 -32 -53 -79 -88 -79 -35 0
-92 43 -92 68 0 10 -4 24 -10 32 -7 12 -10 12 -16 -4z"/>
<path d="M1040 644 c-14 -36 -12 -77 3 -99 11 -14 22 -17 45 -12 33 7 38 2 23
-22 -6 -8 -19 -12 -35 -9 -35 7 -43 -9 -12 -23 20 -10 30 -9 51 5 23 15 25 22
25 99 l0 83 -45 2 c-41 1 -47 -1 -55 -24z m68 -6 c30 -30 4 -96 -32 -82 -19 7
-23 80 -3 87 19 8 22 8 35 -5z"/>
<path d="M1180 599 c0 -55 3 -69 15 -69 12 0 15 13 15 55 0 37 4 55 13 56 6 1
18 2 26 3 8 0 16 6 18 13 3 9 -10 12 -41 11 l-46 -1 0 -68z"/>
<path d="M1306 648 c-45 -64 8 -139 78 -112 28 11 18 27 -13 21 -26 -6 -51 7
-51 25 0 4 20 8 45 8 44 0 45 1 39 28 -10 39 -23 52 -55 52 -17 0 -34 -8 -43
-22z m62 -10 c19 -19 14 -28 -18 -28 -16 0 -30 4 -30 8 0 9 21 32 30 32 3 0
11 -5 18 -12z"/>
<path d="M1456 648 c-45 -64 8 -139 78 -112 28 11 18 27 -13 21 -26 -6 -51 7
-51 25 0 4 20 8 45 8 44 0 45 1 39 28 -10 39 -23 52 -55 52 -17 0 -34 -8 -43
-22z m62 -10 c19 -19 14 -28 -18 -28 -16 0 -30 4 -30 8 0 9 21 32 30 32 3 0
11 -5 18 -12z"/>
<path d="M1590 599 c0 -55 3 -69 15 -69 11 0 15 13 15 54 0 38 4 56 15 60 25
9 45 -22 45 -70 0 -24 5 -44 10 -44 15 0 12 116 -3 128 -7 6 -32 11 -55 10
l-42 0 0 -69z"/>
</g>
</svg>
